<mxfile host="app.diagrams.net" modified="2021-10-26T19:20:49.101Z" agent="5.0 (Windows NT 6.1; Win64; x64) AppleWebKit/537.36 (KHTML, like Gecko) Chrome/94.0.4606.81 Safari/537.36" etag="vHnCyF1viYip8YelFvBz" version="14.7.6" type="github">
  <diagram name="Page-1" id="c37626ed-c26b-45fb-9056-f9ebc6bb27b6">
    <mxGraphModel dx="2370" dy="674" grid="1" gridSize="10" guides="1" tooltips="1" connect="1" arrows="1" fold="1" page="1" pageScale="1" pageWidth="1100" pageHeight="850" background="none" math="0" shadow="0">
      <root>
        <mxCell id="0" />
        <mxCell id="1" parent="0" />
        <mxCell id="twmVMLxtn3eR-IHWOZhS-1" value="" style="shape=mxgraph.cisco.routers.router;html=1;dashed=0;fillColor=#036897;strokeColor=#ffffff;strokeWidth=2;verticalLabelPosition=bottom;verticalAlign=top;rounded=0;shadow=0;comic=0;fontFamily=Verdana;fontSize=12;" vertex="1" parent="1">
          <mxGeometry x="-1050" y="1350" width="78" height="53" as="geometry" />
        </mxCell>
        <mxCell id="twmVMLxtn3eR-IHWOZhS-2" value="" style="shape=mxgraph.cisco.switches.virtual_layer_switch;html=1;pointerEvents=1;dashed=0;fillColor=#036897;strokeColor=#ffffff;strokeWidth=2;verticalLabelPosition=bottom;verticalAlign=top;align=center;outlineConnect=0;" vertex="1" parent="1">
          <mxGeometry x="-1020" y="1564" width="64" height="86" as="geometry" />
        </mxCell>
        <mxCell id="twmVMLxtn3eR-IHWOZhS-20" style="edgeStyle=orthogonalEdgeStyle;rounded=0;orthogonalLoop=1;jettySize=auto;html=1;exitX=0.5;exitY=0;exitDx=0;exitDy=0;exitPerimeter=0;fillColor=#dae8fc;strokeColor=#6c8ebf;endArrow=none;endFill=0;" edge="1" parent="1" source="twmVMLxtn3eR-IHWOZhS-3" target="twmVMLxtn3eR-IHWOZhS-10">
          <mxGeometry relative="1" as="geometry">
            <Array as="points">
              <mxPoint x="-566" y="290" />
            </Array>
          </mxGeometry>
        </mxCell>
        <mxCell id="twmVMLxtn3eR-IHWOZhS-28" style="edgeStyle=orthogonalEdgeStyle;rounded=0;orthogonalLoop=1;jettySize=auto;html=1;exitX=0.87;exitY=0.74;exitDx=0;exitDy=0;exitPerimeter=0;endArrow=none;endFill=0;strokeColor=#6c8ebf;fillColor=#dae8fc;" edge="1" parent="1" source="twmVMLxtn3eR-IHWOZhS-3" target="twmVMLxtn3eR-IHWOZhS-37">
          <mxGeometry relative="1" as="geometry">
            <Array as="points">
              <mxPoint x="-410" y="327" />
            </Array>
          </mxGeometry>
        </mxCell>
        <mxCell id="twmVMLxtn3eR-IHWOZhS-31" style="edgeStyle=orthogonalEdgeStyle;rounded=0;orthogonalLoop=1;jettySize=auto;html=1;exitX=0;exitY=0.5;exitDx=0;exitDy=0;exitPerimeter=0;endArrow=none;endFill=0;strokeColor=#6c8ebf;fillColor=#dae8fc;" edge="1" parent="1" source="twmVMLxtn3eR-IHWOZhS-3" target="twmVMLxtn3eR-IHWOZhS-30">
          <mxGeometry relative="1" as="geometry" />
        </mxCell>
        <mxCell id="twmVMLxtn3eR-IHWOZhS-34" style="edgeStyle=orthogonalEdgeStyle;rounded=0;orthogonalLoop=1;jettySize=auto;html=1;exitX=1;exitY=0;exitDx=0;exitDy=0;exitPerimeter=0;endArrow=none;endFill=0;strokeColor=#6c8ebf;fillColor=#dae8fc;" edge="1" parent="1" source="twmVMLxtn3eR-IHWOZhS-3" target="twmVMLxtn3eR-IHWOZhS-13">
          <mxGeometry relative="1" as="geometry">
            <Array as="points">
              <mxPoint x="-499" y="286" />
              <mxPoint x="-380" y="286" />
            </Array>
          </mxGeometry>
        </mxCell>
        <mxCell id="twmVMLxtn3eR-IHWOZhS-36" style="edgeStyle=orthogonalEdgeStyle;rounded=0;orthogonalLoop=1;jettySize=auto;html=1;exitX=0.5;exitY=0;exitDx=0;exitDy=0;exitPerimeter=0;endArrow=none;endFill=0;strokeColor=#6c8ebf;fillColor=#dae8fc;" edge="1" parent="1" source="twmVMLxtn3eR-IHWOZhS-3" target="twmVMLxtn3eR-IHWOZhS-12">
          <mxGeometry relative="1" as="geometry">
            <Array as="points">
              <mxPoint x="-530" y="290" />
              <mxPoint x="-530" y="156" />
            </Array>
          </mxGeometry>
        </mxCell>
        <mxCell id="twmVMLxtn3eR-IHWOZhS-3" value="" style="shape=mxgraph.cisco.switches.workgroup_switch;html=1;pointerEvents=1;dashed=0;fillColor=#036897;strokeColor=#ffffff;strokeWidth=2;verticalLabelPosition=bottom;verticalAlign=top;align=center;outlineConnect=0;" vertex="1" parent="1">
          <mxGeometry x="-600" y="290" width="101" height="50" as="geometry" />
        </mxCell>
        <mxCell id="twmVMLxtn3eR-IHWOZhS-5" value="" style="pointerEvents=1;shadow=0;dashed=0;html=1;strokeColor=none;fillColor=#505050;labelPosition=center;verticalLabelPosition=bottom;verticalAlign=top;outlineConnect=0;align=center;shape=mxgraph.office.servers.application_server;" vertex="1" parent="1">
          <mxGeometry x="-880" y="1616" width="46" height="56" as="geometry" />
        </mxCell>
        <mxCell id="twmVMLxtn3eR-IHWOZhS-7" value="" style="pointerEvents=1;shadow=0;dashed=0;html=1;strokeColor=none;fillColor=#505050;labelPosition=center;verticalLabelPosition=bottom;verticalAlign=top;outlineConnect=0;align=center;shape=mxgraph.office.servers.database_server_blue;" vertex="1" parent="1">
          <mxGeometry x="-890" y="1508" width="43" height="56" as="geometry" />
        </mxCell>
        <mxCell id="twmVMLxtn3eR-IHWOZhS-24" style="edgeStyle=orthogonalEdgeStyle;rounded=0;orthogonalLoop=1;jettySize=auto;html=1;endArrow=none;endFill=0;" edge="1" parent="1" source="twmVMLxtn3eR-IHWOZhS-8" target="twmVMLxtn3eR-IHWOZhS-13">
          <mxGeometry relative="1" as="geometry" />
        </mxCell>
        <mxCell id="twmVMLxtn3eR-IHWOZhS-25" style="edgeStyle=orthogonalEdgeStyle;rounded=0;orthogonalLoop=1;jettySize=auto;html=1;endArrow=none;endFill=0;strokeColor=#6c8ebf;fillColor=#dae8fc;" edge="1" parent="1" source="twmVMLxtn3eR-IHWOZhS-8" target="twmVMLxtn3eR-IHWOZhS-3">
          <mxGeometry relative="1" as="geometry">
            <Array as="points">
              <mxPoint x="-448" y="306" />
            </Array>
          </mxGeometry>
        </mxCell>
        <mxCell id="twmVMLxtn3eR-IHWOZhS-8" value="iSCSI&lt;br&gt;1" style="shadow=0;dashed=0;html=1;strokeColor=none;fillColor=#505050;labelPosition=left;verticalLabelPosition=middle;verticalAlign=middle;outlineConnect=0;align=right;shape=mxgraph.office.databases.database_server;" vertex="1" parent="1">
          <mxGeometry x="-470" y="198" width="43" height="57" as="geometry" />
        </mxCell>
        <mxCell id="twmVMLxtn3eR-IHWOZhS-9" value="" style="pointerEvents=1;shadow=0;dashed=0;html=1;strokeColor=none;fillColor=#505050;labelPosition=center;verticalLabelPosition=bottom;verticalAlign=top;outlineConnect=0;align=center;shape=mxgraph.office.servers.file_server;" vertex="1" parent="1">
          <mxGeometry x="-770" y="1448" width="45" height="56" as="geometry" />
        </mxCell>
        <mxCell id="twmVMLxtn3eR-IHWOZhS-10" value="DHCP&lt;br&gt;main" style="pointerEvents=1;shadow=0;dashed=0;html=1;strokeColor=none;fillColor=#505050;labelPosition=left;verticalLabelPosition=middle;verticalAlign=middle;outlineConnect=0;align=right;shape=mxgraph.office.servers.server_generic;" vertex="1" parent="1">
          <mxGeometry x="-580" y="110" width="27" height="52" as="geometry" />
        </mxCell>
        <mxCell id="twmVMLxtn3eR-IHWOZhS-21" style="edgeStyle=orthogonalEdgeStyle;rounded=0;orthogonalLoop=1;jettySize=auto;html=1;exitX=0.5;exitY=0;exitDx=0;exitDy=0;exitPerimeter=0;fillColor=#f8cecc;strokeColor=#b85450;endArrow=none;endFill=0;" edge="1" parent="1" source="twmVMLxtn3eR-IHWOZhS-11" target="twmVMLxtn3eR-IHWOZhS-12">
          <mxGeometry relative="1" as="geometry">
            <Array as="points">
              <mxPoint x="-244" y="290" />
            </Array>
          </mxGeometry>
        </mxCell>
        <mxCell id="twmVMLxtn3eR-IHWOZhS-29" style="edgeStyle=orthogonalEdgeStyle;rounded=0;orthogonalLoop=1;jettySize=auto;html=1;exitX=0;exitY=0.98;exitDx=0;exitDy=0;exitPerimeter=0;endArrow=none;endFill=0;strokeColor=#b85450;fillColor=#f8cecc;" edge="1" parent="1" source="twmVMLxtn3eR-IHWOZhS-11" target="twmVMLxtn3eR-IHWOZhS-37">
          <mxGeometry relative="1" as="geometry">
            <Array as="points">
              <mxPoint x="-320" y="326" />
              <mxPoint x="-370" y="326" />
            </Array>
          </mxGeometry>
        </mxCell>
        <mxCell id="twmVMLxtn3eR-IHWOZhS-33" style="edgeStyle=orthogonalEdgeStyle;rounded=0;orthogonalLoop=1;jettySize=auto;html=1;exitX=0;exitY=0.5;exitDx=0;exitDy=0;exitPerimeter=0;endArrow=none;endFill=0;strokeColor=#b85450;fillColor=#f8cecc;" edge="1" parent="1" source="twmVMLxtn3eR-IHWOZhS-11" target="twmVMLxtn3eR-IHWOZhS-8">
          <mxGeometry relative="1" as="geometry">
            <Array as="points">
              <mxPoint x="-440" y="315" />
            </Array>
          </mxGeometry>
        </mxCell>
        <mxCell id="twmVMLxtn3eR-IHWOZhS-35" style="edgeStyle=orthogonalEdgeStyle;rounded=0;orthogonalLoop=1;jettySize=auto;html=1;exitX=0.5;exitY=0;exitDx=0;exitDy=0;exitPerimeter=0;endArrow=none;endFill=0;strokeColor=#b85450;fillColor=#f8cecc;" edge="1" parent="1" source="twmVMLxtn3eR-IHWOZhS-11" target="twmVMLxtn3eR-IHWOZhS-10">
          <mxGeometry relative="1" as="geometry">
            <Array as="points">
              <mxPoint x="-280" y="290" />
              <mxPoint x="-280" y="146" />
            </Array>
          </mxGeometry>
        </mxCell>
        <mxCell id="twmVMLxtn3eR-IHWOZhS-11" value="" style="shape=mxgraph.cisco.switches.workgroup_switch;html=1;pointerEvents=1;dashed=0;fillColor=#036897;strokeColor=#ffffff;strokeWidth=2;verticalLabelPosition=bottom;verticalAlign=top;align=center;outlineConnect=0;" vertex="1" parent="1">
          <mxGeometry x="-320" y="290" width="101" height="50" as="geometry" />
        </mxCell>
        <mxCell id="twmVMLxtn3eR-IHWOZhS-22" style="edgeStyle=orthogonalEdgeStyle;rounded=0;orthogonalLoop=1;jettySize=auto;html=1;endArrow=none;endFill=0;" edge="1" parent="1" source="twmVMLxtn3eR-IHWOZhS-12" target="twmVMLxtn3eR-IHWOZhS-10">
          <mxGeometry relative="1" as="geometry" />
        </mxCell>
        <mxCell id="twmVMLxtn3eR-IHWOZhS-12" value="DHCP &lt;br&gt;failover" style="pointerEvents=1;shadow=0;dashed=0;html=1;strokeColor=none;fillColor=#505050;labelPosition=right;verticalLabelPosition=middle;verticalAlign=middle;outlineConnect=0;align=left;shape=mxgraph.office.servers.server_generic;" vertex="1" parent="1">
          <mxGeometry x="-257.5" y="110" width="27" height="52" as="geometry" />
        </mxCell>
        <mxCell id="twmVMLxtn3eR-IHWOZhS-26" style="edgeStyle=orthogonalEdgeStyle;rounded=0;orthogonalLoop=1;jettySize=auto;html=1;endArrow=none;endFill=0;strokeColor=#b85450;fillColor=#f8cecc;" edge="1" parent="1" source="twmVMLxtn3eR-IHWOZhS-13" target="twmVMLxtn3eR-IHWOZhS-11">
          <mxGeometry relative="1" as="geometry">
            <mxPoint x="-368.5" y="316" as="targetPoint" />
            <Array as="points">
              <mxPoint x="-370" y="315" />
            </Array>
          </mxGeometry>
        </mxCell>
        <mxCell id="twmVMLxtn3eR-IHWOZhS-13" value="iSCSI&lt;br&gt;2" style="shadow=0;dashed=0;html=1;strokeColor=none;fillColor=#505050;labelPosition=right;verticalLabelPosition=middle;verticalAlign=middle;outlineConnect=0;align=left;shape=mxgraph.office.databases.database_server;" vertex="1" parent="1">
          <mxGeometry x="-390" y="198" width="43" height="57" as="geometry" />
        </mxCell>
        <mxCell id="twmVMLxtn3eR-IHWOZhS-16" style="edgeStyle=orthogonalEdgeStyle;rounded=0;orthogonalLoop=1;jettySize=auto;html=1;exitX=0.5;exitY=0;exitDx=0;exitDy=0;exitPerimeter=0;fillColor=#dae8fc;strokeColor=#6c8ebf;endArrow=none;endFill=0;" edge="1" parent="1" source="twmVMLxtn3eR-IHWOZhS-14" target="twmVMLxtn3eR-IHWOZhS-3">
          <mxGeometry relative="1" as="geometry" />
        </mxCell>
        <mxCell id="twmVMLxtn3eR-IHWOZhS-18" style="edgeStyle=orthogonalEdgeStyle;rounded=0;orthogonalLoop=1;jettySize=auto;html=1;entryX=0.198;entryY=0.92;entryDx=0;entryDy=0;entryPerimeter=0;fillColor=#f8cecc;strokeColor=#b85450;endArrow=none;endFill=0;" edge="1" parent="1" source="twmVMLxtn3eR-IHWOZhS-14" target="twmVMLxtn3eR-IHWOZhS-11">
          <mxGeometry relative="1" as="geometry">
            <mxPoint x="-300" y="376" as="targetPoint" />
            <Array as="points">
              <mxPoint x="-540" y="496" />
              <mxPoint x="-300" y="496" />
            </Array>
          </mxGeometry>
        </mxCell>
        <mxCell id="twmVMLxtn3eR-IHWOZhS-14" value="VM1" style="shape=mxgraph.cisco.computers_and_peripherals.pc;html=1;pointerEvents=1;dashed=0;fillColor=#036897;strokeColor=#ffffff;strokeWidth=2;verticalLabelPosition=bottom;verticalAlign=top;align=center;outlineConnect=0;" vertex="1" parent="1">
          <mxGeometry x="-588.5" y="600" width="78" height="70" as="geometry" />
        </mxCell>
        <mxCell id="twmVMLxtn3eR-IHWOZhS-17" style="edgeStyle=orthogonalEdgeStyle;rounded=0;orthogonalLoop=1;jettySize=auto;html=1;exitX=0.5;exitY=0;exitDx=0;exitDy=0;exitPerimeter=0;entryX=0.5;entryY=0.98;entryDx=0;entryDy=0;entryPerimeter=0;fillColor=#f8cecc;strokeColor=#b85450;endArrow=none;endFill=0;" edge="1" parent="1" source="twmVMLxtn3eR-IHWOZhS-15" target="twmVMLxtn3eR-IHWOZhS-11">
          <mxGeometry relative="1" as="geometry">
            <Array as="points">
              <mxPoint x="-260" y="582" />
              <mxPoint x="-260" y="339" />
            </Array>
          </mxGeometry>
        </mxCell>
        <mxCell id="twmVMLxtn3eR-IHWOZhS-19" style="edgeStyle=orthogonalEdgeStyle;rounded=0;orthogonalLoop=1;jettySize=auto;html=1;exitX=0.5;exitY=0;exitDx=0;exitDy=0;exitPerimeter=0;fillColor=#dae8fc;strokeColor=#6c8ebf;endArrow=none;endFill=0;" edge="1" parent="1" source="twmVMLxtn3eR-IHWOZhS-15" target="twmVMLxtn3eR-IHWOZhS-3">
          <mxGeometry relative="1" as="geometry">
            <Array as="points">
              <mxPoint x="-290" y="582" />
              <mxPoint x="-290" y="526" />
              <mxPoint x="-510" y="526" />
            </Array>
          </mxGeometry>
        </mxCell>
        <mxCell id="twmVMLxtn3eR-IHWOZhS-15" value="VM2" style="shape=mxgraph.cisco.computers_and_peripherals.pc;html=1;pointerEvents=1;dashed=0;fillColor=#036897;strokeColor=#ffffff;strokeWidth=2;verticalLabelPosition=bottom;verticalAlign=top;align=center;outlineConnect=0;" vertex="1" parent="1">
          <mxGeometry x="-308.5" y="582" width="78" height="70" as="geometry" />
        </mxCell>
        <mxCell id="twmVMLxtn3eR-IHWOZhS-32" style="edgeStyle=orthogonalEdgeStyle;rounded=0;orthogonalLoop=1;jettySize=auto;html=1;endArrow=none;endFill=0;strokeColor=#b85450;fillColor=#f8cecc;" edge="1" parent="1" source="twmVMLxtn3eR-IHWOZhS-30" target="twmVMLxtn3eR-IHWOZhS-11">
          <mxGeometry relative="1" as="geometry">
            <Array as="points">
              <mxPoint x="-751" y="696" />
              <mxPoint x="-210" y="696" />
              <mxPoint x="-210" y="315" />
            </Array>
          </mxGeometry>
        </mxCell>
        <mxCell id="twmVMLxtn3eR-IHWOZhS-30" value="VM&lt;br&gt;from XML file" style="shape=mxgraph.cisco.computers_and_peripherals.pc;html=1;pointerEvents=1;dashed=0;fillColor=#036897;strokeColor=#ffffff;strokeWidth=2;verticalLabelPosition=bottom;verticalAlign=top;align=center;outlineConnect=0;opacity=50;" vertex="1" parent="1">
          <mxGeometry x="-790" y="390" width="78" height="70" as="geometry" />
        </mxCell>
        <mxCell id="twmVMLxtn3eR-IHWOZhS-37" value="Server&lt;br&gt;PXE" style="pointerEvents=1;shadow=0;dashed=0;html=1;strokeColor=none;fillColor=#505050;labelPosition=center;verticalLabelPosition=bottom;verticalAlign=top;outlineConnect=0;align=center;shape=mxgraph.office.servers.file_server;" vertex="1" parent="1">
          <mxGeometry x="-410" y="390" width="45" height="56" as="geometry" />
        </mxCell>
      </root>
    </mxGraphModel>
  </diagram>
</mxfile>
